# xmcd
#
# Track frame offsets:
#	150
#	19369
#	37631
#	52646
#	67841
#	86358
#	102984
#	118882
#	135019
#	148601
#	168310
#
# Disc length: 2426 seconds
# Revision: 0
# Processed by: cddbd v1.5.2PL0 Copyright (c) Steve Scherf et al.
# Submitted via: dBpowerAMP V12.0
#
DISCID=7d09780b
DTITLE=Various Artist - The Perfect Storm
DYEAR=2010
DGENRE=Hip Hop
TTITLE0=Twista featuring Dawreck of Triple Darkness - Darkness
TTITLE1=Twista - Up To Speed
TTITLE2=Twista featuring Chris Brown - Make A Movie
TTITLE3=Twista featuring Lil Play - I Do
TTITLE4=Twista featuring Tia London - 2012
TTITLE5=Twista featuring Scotty - Sweating
TTITLE6=Twista - Back To The Basics
TTITLE7=Twista featuring Wacka Flocka - Hands Up, Lay Down
TTITLE8=Twista featuring Ray J - Call The Police
TTITLE9=Twista featuring Yo Gotti - Cocaine
TTITLE10=Twista - 3 Minute Murder
EXTD=
EXTT0=
EXTT1=
EXTT2=
EXTT3=
EXTT4=
EXTT5=
EXTT6=
EXTT7=
EXTT8=
EXTT9=
EXTT10=
PLAYORDER=
